<?xml version="1.0" encoding="utf-8"?>
<!-- Generator: Adobe Illustrator 21.0.2, SVG Export Plug-In . SVG Version: 6.00 Build 0)  -->
<svg version="1.1" id="Laag_1" xmlns="http://www.w3.org/2000/svg" xmlns:xlink="http://www.w3.org/1999/xlink" x="0px" y="0px"
	 viewBox="0 0 300 300" style="enable-background:new 0 0 300 300;" xml:space="preserve">
<style type="text/css">
	.st0{fill:#FFFFFF;}
</style>
<g>
	<g>
		<path class="st0" d="M127.9,134.5c-2.8,0-5.3,1-7.2,2.9c-2.9,2.9-3.2,7.8-3.2,12.3c0,4.4,0.2,9.3,3.2,12.3
			c1.9,1.9,4.4,2.9,7.2,2.9c2.8,0,5.3-1,7.3-2.9c2.9-3,3.2-7.8,3.2-12.3c0-4.5-0.2-9.4-3.2-12.3
			C133.2,135.5,130.7,134.5,127.9,134.5z"/>
	</g>
	<g>
		<path class="st0" d="M170.3,134.5c-8.7,0-9.9,7.4-9.9,14.9c0,7.4,1.3,14.9,9.9,14.9c8.7,0,9.9-7.4,9.9-14.9
			C180.1,141.9,178.9,134.5,170.3,134.5z"/>
	</g>
	<g>
		<path class="st0" d="M214.7,134.5c-2.8,0-5.3,1-7.2,2.9c-2.9,2.9-3.2,7.8-3.2,12.3c0,4.4,0.2,9.3,3.2,12.3
			c1.9,1.9,4.4,2.9,7.2,2.9c2.8,0,5.3-1,7.3-2.9c2.9-3,3.2-7.8,3.2-12.3c0-4.5-0.2-9.4-3.2-12.3C220,135.5,217.5,134.5,214.7,134.5z
			"/>
	</g>
	<g>
		<path class="st0" d="M149.7-0.1c-82.8,0-150,67.2-150,150s67.2,150,150,150s150-67.2,150-150S232.5-0.1,149.7-0.1z M104,169.6
			H68.4V112h6.1v52.1H104V169.6z M139.3,165.5c-2.8,2.8-6.6,4.5-11.4,4.5c-4.9,0-8.7-1.7-11.4-4.5c-4-4.1-4.9-9.7-4.9-15.9
			c0-6.1,0.8-11.8,4.9-15.9c2.8-2.8,6.6-4.5,11.4-4.5c4.9,0,8.7,1.7,11.4,4.5c4,4,4.9,9.7,4.9,15.9
			C144.1,155.8,143.3,161.4,139.3,165.5z M186,170.8c0,9.9-6.1,17.1-16.6,17.1c-6,0-9.3-1.5-13.5-5.3l3.8-3.7c2.9,2.6,4.9,4,9.5,4
			c7.7,0,10.9-5.4,10.9-12.2v-6.2c-3.2,4.1-6.9,5.2-11.2,5.2c-4,0-7.5-1.5-9.6-3.6c-4-4-4.9-10.1-4.9-16.6c0-6.5,0.9-12.6,4.9-16.6
			c2.1-2.1,5.7-3.5,9.7-3.5c4.4,0,7.9,1,11.2,5.2v-4.7h5.7V170.8z M226.1,165.5c-2.7,2.8-6.6,4.5-11.4,4.5c-4.9,0-8.7-1.7-11.4-4.5
			c-4-4.1-4.9-9.7-4.9-15.9c0-6.1,0.8-11.8,4.9-15.9c2.8-2.8,6.6-4.5,11.4-4.5c4.9,0,8.7,1.7,11.4,4.5c4,4,4.9,9.7,4.9,15.9
			C230.9,155.8,230.1,161.4,226.1,165.5z"/>
	</g>
</g>
</svg>
